<svg xmlns="http://www.w3.org/2000/svg"  viewBox="0 0 100 100" width="100px" height="100px"><path d="M39 88c-4.962 0-9-4.037-9-9V61c0-4.963 4.038-9 9-9s9 4.037 9 9v18C48 83.963 43.962 88 39 88zM39 54c-3.86 0-7 3.141-7 7v18c0 3.859 3.14 7 7 7s7-3.141 7-7V61C46 57.141 42.86 54 39 54zM59 48c-4.962 0-9-4.037-9-9V21c0-4.963 4.038-9 9-9s9 4.037 9 9v18C68 43.963 63.962 48 59 48zM59 14c-3.86 0-7 3.141-7 7v18c0 3.859 3.14 7 7 7s7-3.141 7-7V21C66 17.141 62.86 14 59 14zM39 50H21c-4.962 0-9-4.037-9-9s4.038-9 9-9h18c4.962 0 9 4.037 9 9S43.962 50 39 50zM21 34c-3.86 0-7 3.141-7 7s3.14 7 7 7h18c3.86 0 7-3.141 7-7s-3.14-7-7-7H21zM77 68H59c-4.962 0-9-4.037-9-9s4.038-9 9-9h18c4.962 0 9 4.037 9 9S81.962 68 77 68zM59 52c-3.86 0-7 3.141-7 7s3.14 7 7 7h18c3.86 0 7-3.141 7-7s-3.14-7-7-7H59zM59 88c-4.962 0-9-4.037-9-9v-8c0-.553.448-1 1-1h8c4.962 0 9 4.037 9 9S63.962 88 59 88zM52 72v7c0 3.859 3.14 7 7 7s7-3.141 7-7-3.14-7-7-7H52zM19 70c-4.962 0-9-4.037-9-9s4.038-9 9-9h8c.552 0 1 .447 1 1v8C28 65.963 23.962 70 19 70zM19 54c-3.86 0-7 3.141-7 7s3.14 7 7 7 7-3.141 7-7v-7H19zM79 48h-8c-.552 0-1-.447-1-1v-8c0-4.963 4.038-9 9-9s9 4.037 9 9S83.962 48 79 48zM72 46h7c3.86 0 7-3.141 7-7s-3.14-7-7-7-7 3.141-7 7V46zM47 30h-8c-4.962 0-9-4.037-9-9s4.038-9 9-9 9 4.037 9 9v8C48 29.553 47.552 30 47 30zM39 14c-3.86 0-7 3.141-7 7s3.14 7 7 7h7v-7C46 17.141 42.86 14 39 14z"/></svg>