<?xml version="1.0" encoding="utf-8"?>
<!-- Generator: Adobe Illustrator 27.8.1, SVG Export Plug-In . SVG Version: 6.00 Build 0)  -->
<svg version="1.0" id="Layer_1" xmlns="http://www.w3.org/2000/svg" xmlns:xlink="http://www.w3.org/1999/xlink" x="0px" y="0px"
	 viewBox="0 0 322 345" enable-background="new 0 0 322 345" xml:space="preserve">
<symbol  id="a" viewBox="-158.2 -170.1 316.5 340.2">
	<g>
		<path stroke="#000000" stroke-width="6.1551" stroke-linecap="round" stroke-linejoin="round" stroke-miterlimit="8.793" d="
			M155.1-75.6c-0.9-4.6-2.4-9.1-4.2-13.3c-8.8-20.2-26.1-31.6-46.8-42.2c-37.3-19.1-75-29.9-100.5-35.8h-7.4c0,0,0,0,0,0.1v-0.1
			c-25.5,5.9-63.2,16.7-100.5,35.8c-20.7,10.6-37.9,22.1-46.8,42.2c-2.3,5.3-3.6,10-4.2,13.3c-0.1,26.4-0.1,62.6,0.4,105.7
			c0.6,55.2,1.6,90.2,5.7,111c2,10.1,5.6,21.4,14.3,24.9c15.2,6.1,37.3-15.4,57.1-34.8c17.3-16.9,30.6-33.9,40.7-48.9
			c1.9,0.3,3.8,0.6,5.7,0.8h0c9.1,1.2,18.3,1.8,27.5,1.7h7.4c11.1,0.1,22.2-0.8,33.2-2.6c10.1,15,23.4,32,40.7,48.9
			c19.8,19.3,41.9,40.8,57.1,34.8c8.7-3.5,12.4-14.7,14.3-24.9c4.1-20.8,5.1-55.8,5.7-111C155.2-13,155.2-49.2,155.1-75.6z"/>
	</g>
	<g>
		
			<path fill="none" stroke="#FFFFFF" stroke-width="10.5515" stroke-linecap="round" stroke-linejoin="round" stroke-miterlimit="8.793" d="
			M-97.9-48.4c6.2,0.6,17.1,0.9,29.7-3.3c14-4.7,23.1-12.6,27.6-17.1"/>
		
			<path fill="none" stroke="#FFFFFF" stroke-width="10.5515" stroke-linecap="round" stroke-linejoin="round" stroke-miterlimit="8.793" d="
			M97.9-48.4c-6.2,0.6-17.1,0.9-29.7-3.3c-14-4.7-23.1-12.6-27.6-17.1"/>
	</g>
</symbol>
<rect x="-126" y="-21.1" fill="none" width="576" height="387"/>
<use xlink:href="#a"  width="316.5" height="340.2" id="XMLID_00000074402996478278151430000018090387257321362611_" x="-158.2" y="-170.1" transform="matrix(0.9984 0 0 -0.9994 162 172.894)" overflow="visible"/>
</svg>
